<?xml version="1.0" standalone="no"?>
<!DOCTYPE svg PUBLIC "-//W3C//DTD SVG 20010904//EN"
 "http://www.w3.org/TR/2001/REC-SVG-20010904/DTD/svg10.dtd">
<svg version="1.0" xmlns="http://www.w3.org/2000/svg"
 width="261.000000pt" height="261.000000pt" viewBox="0 0 261.000000 261.000000"
 preserveAspectRatio="xMidYMid meet">
<metadata>
Created by potrace 1.11, written by Peter Selinger 2001-2013
</metadata>
<g transform="translate(0.000000,261.000000) scale(0.100000,-0.100000)"
fill="#000000" stroke="none">
<path d="M765 2596 c-44 -19 -92 -78 -111 -138 -22 -68 -27 -289 -10 -411 l12
-89 -53 6 -53 6 0 -29 c0 -16 -3 -42 -6 -59 -6 -29 -4 -31 32 -37 103 -17 107
-19 116 -55 5 -19 22 -84 39 -143 17 -60 29 -111 26 -113 -12 -12 -249 -144
-259 -144 -19 0 -181 126 -245 192 -115 116 -148 179 -119 223 9 14 21 25 27
25 7 0 9 9 5 23 -12 40 -14 52 -15 80 l-1 27 -38 -19 c-49 -25 -90 -70 -102
-109 -12 -45 -3 -116 21 -165 33 -64 120 -166 194 -227 37 -30 73 -60 79 -66
6 -5 28 -22 49 -36 l38 -26 -43 -33 c-24 -18 -44 -34 -46 -35 -1 -1 13 -17 31
-35 19 -19 36 -40 38 -48 4 -11 19 -4 60 27 31 23 61 42 67 42 10 0 247 -132
259 -144 5 -4 -68 -278 -76 -288 -3 -3 -22 -9 -41 -12 -19 -3 -44 -7 -55 -10
-109 -22 -310 -23 -378 -2 -67 20 -86 39 -81 81 3 28 0 35 -18 40 -13 4 -35
18 -50 32 -26 24 -26 25 -37 5 -6 -11 -13 -37 -15 -58 -15 -116 54 -194 199
-224 60 -13 220 -16 305 -6 25 3 69 8 98 12 52 6 53 6 48 -17 -14 -60 -17 -93
-22 -219 -9 -208 23 -320 108 -383 33 -24 114 -33 161 -18 57 19 147 83 214
152 58 60 152 174 174 209 8 13 12 11 30 -10 12 -14 27 -34 35 -44 13 -19 14
-19 36 5 13 13 34 31 47 40 l24 15 -41 57 c-23 31 -42 59 -42 62 0 4 18 37 39
73 83 141 92 158 98 175 3 11 12 17 22 14 9 -3 74 -21 145 -41 71 -20 131 -37
133 -39 4 -5 23 -103 31 -167 10 -83 6 -260 -6 -305 -16 -58 -47 -88 -84 -83
-23 4 -31 0 -38 -16 -4 -12 -19 -33 -33 -48 l-26 -28 22 -12 c12 -7 52 -12 88
-13 57 0 70 4 102 28 75 57 108 175 102 366 -2 64 -6 125 -8 136 -3 11 -8 43
-12 72 l-7 51 39 -8 c120 -28 353 -30 442 -5 179 52 224 186 115 350 -43 66
-148 169 -245 242 -43 32 -78 60 -78 63 0 3 28 25 62 50 87 63 220 193 261
254 110 166 65 299 -119 352 -43 12 -94 17 -185 16 -69 -1 -134 -3 -145 -5
-11 -3 -48 -8 -83 -12 l-62 -7 6 55 7 55 -34 -3 c-18 -1 -45 1 -60 5 -26 8
-27 7 -34 -54 -5 -33 -9 -65 -9 -71 -1 -11 -8 -14 -171 -60 -92 -25 -123 -31
-132 -22 -6 7 -26 39 -43 72 -18 33 -47 85 -66 116 -19 31 -34 59 -34 63 0 21
146 202 225 279 48 47 132 97 163 97 12 0 32 -11 44 -25 11 -13 25 -22 31 -18
5 3 31 8 57 12 l48 6 -20 43 c-56 118 -188 133 -328 38 -69 -46 -180 -162
-254 -263 -21 -29 -41 -53 -44 -53 -4 1 -25 26 -47 57 -50 70 -61 83 -138 162
-135 138 -256 189 -352 147z m132 -127 c76 -37 195 -159 302 -310 l32 -46 -38
-64 c-22 -35 -42 -71 -46 -79 -24 -52 -68 -115 -79 -114 -22 2 -252 65 -268
73 -27 14 -45 149 -45 331 0 126 10 173 43 213 20 23 46 22 99 -4z m485 -610
c37 -68 71 -131 77 -141 9 -15 18 -14 100 13 114 36 231 69 231 64 0 -2 -20
-74 -45 -159 -25 -86 -45 -158 -45 -160 0 -2 63 -39 141 -81 77 -42 139 -81
137 -87 -2 -6 -22 -20 -43 -32 -198 -107 -235 -129 -235 -137 0 -6 13 -52 29
-102 17 -51 35 -112 41 -137 6 -25 13 -53 16 -62 4 -14 0 -15 -33 -6 -36 10
-255 75 -278 82 -6 2 -31 -35 -55 -83 -24 -47 -59 -112 -78 -145 -29 -48 -36
-56 -47 -45 -8 8 -46 73 -85 145 l-71 132 -77 -25 c-42 -13 -116 -35 -163 -48
l-86 -23 45 147 c24 80 44 154 45 164 2 13 -22 31 -88 65 -128 68 -195 106
-195 112 0 6 155 93 238 135 40 19 53 31 49 43 -3 9 -24 77 -46 150 -23 74
-41 140 -41 147 0 12 9 11 52 -1 28 -9 59 -17 67 -19 9 -2 58 -17 109 -33 l93
-30 19 37 c10 20 37 70 59 111 23 41 49 90 58 108 9 18 21 31 27 29 6 -2 41
-59 78 -128z m1006 -10 c54 -12 88 -34 95 -59 18 -68 -137 -243 -332 -376
l-46 -31 -62 39 c-35 21 -65 38 -67 38 -2 0 -33 17 -69 38 l-64 38 18 59 c10
32 28 98 40 146 l21 86 72 13 c39 6 107 14 151 17 44 3 81 7 83 8 6 5 118 -6
160 -16z m-121 -731 c84 -68 175 -167 197 -213 17 -35 20 -73 8 -91 -12 -18
-64 -41 -112 -49 -67 -11 -248 -6 -327 9 -11 3 -41 8 -66 11 -47 7 -50 11 -63
80 -2 11 -16 65 -32 120 l-29 100 131 75 131 76 45 -30 c25 -16 77 -56 117
-88z m-1131 -450 c31 -57 66 -115 76 -130 l19 -28 -32 -47 c-131 -193 -298
-342 -370 -331 -58 8 -85 112 -75 288 9 176 24 259 46 271 12 6 249 74 272 78
4 0 33 -45 64 -101z"/>
<path d="M1221 1506 c-99 -36 -156 -168 -118 -273 16 -43 73 -102 116 -120 49
-21 131 -18 179 6 199 102 129 402 -93 400 -27 0 -65 -6 -84 -13z m150 -124
c68 -61 24 -172 -69 -172 -74 0 -125 88 -86 148 26 40 45 51 86 52 27 0 46 -8
69 -28z"/>
<path d="M1886 2389 c-111 -32 -125 -186 -22 -241 84 -45 186 18 186 115 0 89
-81 151 -164 126z"/>
<path d="M283 2040 c-63 -38 -81 -120 -40 -181 27 -40 60 -59 105 -59 67 0
132 58 132 119 0 109 -108 175 -197 121z"/>
<path d="M162 1199 c-120 -25 -137 -191 -25 -241 90 -40 183 19 183 115 0 85
-74 144 -158 126z"/>
<path d="M1483 315 c-77 -33 -97 -146 -36 -207 61 -60 152 -51 200 21 73 108
-42 237 -164 186z"/>
</g>
</svg>
